# xmcd
#
# Track frame offsets: 
#        150
#        8527
#        19572
#        32530
#        45360
#        59965
#        73162
#        83863
#        100188
#        116351
#        127920
#        144216
#        156756
#        169500
#
# Disc length: 2407 seconds
#
# Revision: 0
# Processed by: cddbd v1.5.2PL0 Copyright (c) Steve Scherf et al.
# Submitted via: ExactAudioCopy v1.3
#
DISCID=a409650e
DTITLE=Nico Brina - The Blues Will Help You Survive
DYEAR=2012
DGENRE=Boogie Woogie, Piano Blues
TTITLE0=Rock The Boogie (With Horn Sect
TTITLE1=Two Rabbits On A Blind Date (With Horn Sections)
TTITLE2=The Blues Will Help You Survive (With Horn Sections)
TTITLE3=Tipsy Blues
TTITLE4=I Have No Reason To Love You Anymore
TTITLE5=Born To Be A Boogieman
TTITLE6=Boogie Woogie Feelings (With Horn Sections)
TTITLE7=Bluesdrops
TTITLE8=It's Rockin' Time
TTITLE9=Let Yourself Go
TTITLE10=Lonesome Pianoman
TTITLE11=Time To Boogie
TTITLE12=Hurry Harry
TTITLE13=Honky Tonk Boogie
EXTD=
EXTT0=
EXTT1=
EXTT2=
EXTT3=
EXTT4=
EXTT5=
EXTT6=
EXTT7=
EXTT8=
EXTT9=
EXTT10=
EXTT11=
EXTT12=
EXTT13=
PLAYORDER=
